# xmcd
#
# Track frame offsets:
#	182
#	13132
#	23420
#	36702
#	50245
#	66287
#	86545
#	99410
#	115762
#	129315
#	141750
#	157990
#	169027
#
# Disc length: 2460 seconds
#
# Revision: 3
# Processed by: cddbd v1.5.2PL0 Copyright (c) Steve Scherf et al.
# Submitted via: EZCDAudioConverter 2.1.7.1
#
DISCID=a9099a0d
DTITLE=Mel Tormé With The Meltones - Back In Town
DYEAR=1900
DGENRE=
TTITLE0=Makin' Whoopee
TTITLE1=Baubles, Bangles And Beads
TTITLE2=What Is This Thing Called Love
TTITLE3=I've Never Been In Love Before
TTITLE4=Truckin'
TTITLE5=A Bunch Of The Blues/Keester Parade/TNT/Tiny's Blues
TTITLE6=It Happened In Monterey
TTITLE7=I Hadn't Anyone 'Til You
TTITLE8=A Smooth One
TTITLE9=Don't Dream Of Anybody But Me (Li'l Darlin')
TTITLE10=Some Like It Hot
TTITLE11=Hit The Road To Dreamland
TTITLE12=I Hadn't Anyone 'Til You [Alternate Version]
EXTD=
EXTT0=
EXTT1=
EXTT2=
EXTT3=
EXTT4=
EXTT5=
EXTT6=
EXTT7=
EXTT8=
EXTT9=
EXTT10=
EXTT11=
EXTT12=
PLAYORDER=
